# xmcd
#
# Track frame offsets:
#	150
#	16926
#	42796
#	73141
#	91813
#	150565
#	167453
#	182021
#	205846
#	220882
#	236600
#	257016
#
# Disc length: 3688 seconds
#
# Revision: 1
# Processed by: cddbd v1.5.1PL0 Copyright (c) Steve Scherf et al.
# Submitted via: audiograbber 1.83.01
#
DISCID=960e660c
DTITLE=Jack Norton - Dance Real Slow
DYEAR=1900
DGENRE=
TTITLE0=Red Devil Lye
TTITLE1=Home
TTITLE2=End of the World
TTITLE3=Some Other Lucky Time
TTITLE4=Dance Real Slow
TTITLE5=Genie in a Bottle
TTITLE6=Drunken Arms
TTITLE7=Missouri
TTITLE8=Jesus
TTITLE9=Crying Time
TTITLE10=Let Me Fly
TTITLE11=Our Little Town
EXTD=
EXTT0=
EXTT1=
EXTT2=
EXTT3=
EXTT4=
EXTT5=
EXTT6=
EXTT7=
EXTT8=
EXTT9=
EXTT10=
EXTT11=
PLAYORDER=
